<svg xmlns="http://www.w3.org/2000/svg" width="752px" height="640px" id="document" viewport="0 0 752 640"><style>
		.entity-name {
			font: bold 15px Verdana, Geneva, sans-serif;
			fill: #ffffff;
			text-anchor: middle;
			dominant-baseline: middle;
		}
		.top-highlight {
			stroke: rgba(255, 255, 255, 0.3);
			stroke-width: 1px;
		}
		.bottom-highlight {
			stroke: rgba(0, 0, 0, 0.1);
			stroke-width: 1px;
		}
		.side-highlight {
			stroke: rgba(128, 128, 128, 0.1);
			stroke-width: 1px;
		}
		.attribute-name {
			font: 15px Verdana, Geneva, sans-serif;
			fill: #333333;
			text-anchor: start;
			dominant-baseline: middle;
		}
		.attribute-type {
			font: 15px Verdana, Geneva, sans-serif;
			fill: #aaa;
			text-anchor: end;
			dominant-baseline: middle;
		}
		.attribute.required .attribute-name {
			font: bold 15px Verdana, Geneva, sans-serif;
		}
		.new-button rect {
			fill: #eee;
		}
		.new-button svg g {
			fill: #aaa;
		}
		.association polyline.line {
			stroke: #333333;
			fill: none;
			stroke-width: 2px;
		}
		.association polyline.invisible {
			stroke-width: 32;
			fill: none;
			stroke: transparent;
		}
		</style><g id="associations"><g class="association " id="association-1" data-from-id="entity-1" data-from-arity="one" data-to-id="entity-2" data-to-arity="many"><polyline class="main invisible" points="576,384 576,224"></polyline><polyline class="main line" points="576,384 576,224"></polyline><polyline class="foot line" points="561,223 576,240 591,223"></polyline></g><g class="association " id="association-2" data-from-id="entity-1" data-from-arity="one" data-to-id="entity-3" data-to-arity="many"><polyline class="main invisible" points="480,480 240,480"></polyline><polyline class="main line" points="480,480 240,480"></polyline><polyline class="foot line" points="239,465 256,480 239,495"></polyline></g></g><g id="entities"><g class="entity" id="entity-1" data-color="blue"><rect class="entity-background" x="480" y="384" width="192" height="192" stroke="transparent" fill="#ffffff"></rect><rect class="entity-name-bar" x="480" y="384" width="192" height="32" stroke="transparent" fill="#2980b9"></rect><text class="entity-name" x="576" y="401">Foo</text><g class="attribute " id="attribute-4"><rect x="480" y="416" width="192" height="32" stroke="transparent" fill="#f8f8f8"></rect><text class="attribute-name" x="492" y="433">address</text><text class="attribute-type" x="660" y="433">text</text></g><g class="attribute " id="attribute-3"><rect x="480" y="448" width="192" height="32" stroke="transparent" fill="#ffffff"></rect><text class="attribute-name" x="492" y="465">created at</text><text class="attribute-type" x="660" y="465">datetime</text></g><g class="attribute required" id="attribute-1"><rect x="480" y="480" width="192" height="32" stroke="transparent" fill="#f8f8f8"></rect><text class="attribute-name" x="492" y="497">first name</text><text class="attribute-type" x="660" y="497">text</text></g><g class="attribute " id="attribute-2"><rect x="480" y="512" width="192" height="32" stroke="transparent" fill="#ffffff"></rect><text class="attribute-name" x="492" y="529">last name</text><text class="attribute-type" x="660" y="529">text</text></g><g class="new-button" id="entity-1-new-attribute"><rect x="480" y="544" width="96" height="32" stroke="transparent"></rect></g><g class="new-button" id="entity-1-new-attribute"><rect x="576" y="544" width="96" height="32" stroke="transparent"></rect></g><line class="top-highlight" x1="480" y1="384.5" x2="672" y2="384.5"></line><line class="bottom-highlight" x1="480" y1="575.5" x2="672" y2="575.5"></line><line class="side-highlight" x1="480.5" y1="384.5" x2="480.5" y2="575.5"></line><line class="side-highlight" x1="671.5" y1="384.5" x2="671.5" y2="575.5"></line></g><g class="entity" id="entity-2" data-color="cyan"><rect class="entity-background" x="496" y="64" width="160" height="160" stroke="transparent" fill="#ffffff"></rect><rect class="entity-name-bar" x="496" y="64" width="160" height="32" stroke="transparent" fill="#079992"></rect><text class="entity-name" x="576" y="81">Bar</text><g class="attribute " id="attribute-7"><rect x="496" y="96" width="160" height="32" stroke="transparent" fill="#f8f8f8"></rect><text class="attribute-name" x="508" y="113">description</text><text class="attribute-type" x="644" y="113">text</text></g><g class="attribute required" id="attribute-6"><rect x="496" y="128" width="160" height="32" stroke="transparent" fill="#ffffff"></rect><text class="attribute-name" x="508" y="145">number</text><text class="attribute-type" x="644" y="145">integer</text></g><g class="attribute " id="attribute-5"><rect x="496" y="160" width="160" height="32" stroke="transparent" fill="#f8f8f8"></rect><text class="attribute-name" x="508" y="177">time</text><text class="attribute-type" x="644" y="177">datetime</text></g><g class="new-button" id="entity-2-new-attribute"><rect x="496" y="192" width="80" height="32" stroke="transparent"></rect></g><g class="new-button" id="entity-2-new-attribute"><rect x="576" y="192" width="80" height="32" stroke="transparent"></rect></g><line class="top-highlight" x1="496" y1="64.5" x2="656" y2="64.5"></line><line class="bottom-highlight" x1="496" y1="223.5" x2="656" y2="223.5"></line><line class="side-highlight" x1="496.5" y1="64.5" x2="496.5" y2="223.5"></line><line class="side-highlight" x1="655.5" y1="64.5" x2="655.5" y2="223.5"></line></g><g class="entity" id="entity-3" data-color="green"><rect class="entity-background" x="80" y="400" width="160" height="160" stroke="transparent" fill="#ffffff"></rect><rect class="entity-name-bar" x="80" y="400" width="160" height="32" stroke="transparent" fill="#27ae60"></rect><text class="entity-name" x="160" y="417">Baz</text><g class="attribute " id="attribute-10"><rect x="80" y="432" width="160" height="32" stroke="transparent" fill="#f8f8f8"></rect><text class="attribute-name" x="92" y="449">height</text><text class="attribute-type" x="228" y="449">integer</text></g><g class="attribute required" id="attribute-8"><rect x="80" y="464" width="160" height="32" stroke="transparent" fill="#ffffff"></rect><text class="attribute-name" x="92" y="481">name</text><text class="attribute-type" x="228" y="481">text</text></g><g class="attribute " id="attribute-9"><rect x="80" y="496" width="160" height="32" stroke="transparent" fill="#f8f8f8"></rect><text class="attribute-name" x="92" y="513">width</text><text class="attribute-type" x="228" y="513">integer</text></g><g class="new-button" id="entity-3-new-attribute"><rect x="80" y="528" width="80" height="32" stroke="transparent"></rect></g><g class="new-button" id="entity-3-new-attribute"><rect x="160" y="528" width="80" height="32" stroke="transparent"></rect></g><line class="top-highlight" x1="80" y1="400.5" x2="240" y2="400.5"></line><line class="bottom-highlight" x1="80" y1="559.5" x2="240" y2="559.5"></line><line class="side-highlight" x1="80.5" y1="400.5" x2="80.5" y2="559.5"></line><line class="side-highlight" x1="239.5" y1="400.5" x2="239.5" y2="559.5"></line></g></g></svg>