<?xml version="1.0" encoding="UTF-8"?>
<svg width="48px" height="48px" viewBox="0 0 48 48" version="1.1" xmlns="http://www.w3.org/2000/svg" xmlns:xlink="http://www.w3.org/1999/xlink">
    <title>icon-save</title>
    <g id="icon-save" stroke="none" stroke-width="1" fill="none" fill-rule="evenodd">
        <path d="M13,14 L13,34 C13,34.5522847 13.4477153,35 14,35 L34,35 C34.5522847,35 35,34.5522847 35,34 L35,16.4142136 C35,16.1489971 34.8946432,15.8946432 34.7071068,15.7071068 L32.2928932,13.2928932 C32.1053568,13.1053568 31.8510029,13 31.5857864,13 L14,13 C13.4477153,13 13,13.4477153 13,14 Z" id="Path-15" stroke="#FFFFFF" stroke-width="2" stroke-linejoin="round"></path>
        <rect id="Rectangle" stroke="#FFFFFF" stroke-width="2" stroke-linejoin="round" x="17" y="25" width="14" height="10"></rect>
        <path d="M29,13 C29.5522847,13 30,13.4477153 30,14 L30,19 C30,19.5522847 29.5522847,20 29,20 L19,20 C18.4477153,20 18,19.5522847 18,19 L18,14 C18,13.4477153 18.4477153,13 19,13 L29,13 Z M28,14 L27,14 C26.4477153,14 26,14.4477153 26,15 L26,15 L26,18 C26,18.5522847 26.4477153,19 27,19 L27,19 L28,19 C28.5522847,19 29,18.5522847 29,18 L29,18 L29,15 C29,14.4477153 28.5522847,14 28,14 L28,14 Z" id="Rectangle-Copy-3" fill="#FFFFFF"></path>
    </g>
</svg>