<?xml version="1.0" encoding="UTF-8"?>
<svg width="48px" height="48px" viewBox="0 0 48 48" version="1.1" xmlns="http://www.w3.org/2000/svg" xmlns:xlink="http://www.w3.org/1999/xlink">
    <title>icon-open</title>
    <g id="icon-open" stroke="none" stroke-width="1" fill="none" fill-rule="evenodd" stroke-linejoin="round">
        <path d="M33,18 L33,16 C33,15.4477153 32.5522847,15 32,15 L19.4142136,15 C19.1489971,15 18.8946432,14.8946432 18.7071068,14.7071068 L17.2928932,13.2928932 C17.1053568,13.1053568 16.8510029,13 16.5857864,13 L11.4142136,13 C11.1489971,13 10.8946432,13.1053568 10.7071068,13.2928932 L9.29289322,14.7071068 C9.10535684,14.8946432 9,15.1489971 9,15.4142136 L9,35 L9,35 L31.6606146,35 C32.4710623,35 33.2013929,34.5109029 33.5099707,33.7614996 L39.431456,19.3807498 C39.6417383,18.8700642 39.3982133,18.2856042 38.8875277,18.0753219 C38.7667483,18.0255892 38.6373957,18 38.5067779,18 L18.2692111,18 C17.494487,18 16.7894489,18.4474211 16.4595737,19.1484059 L9,35 L9,35" id="Path-11" stroke="#FFFFFF" stroke-width="2"></path>
    </g>
</svg>