<?xml version="1.0" encoding="UTF-8"?>
<svg width="160px" height="48px" viewBox="0 0 160 48" version="1.1" xmlns="http://www.w3.org/2000/svg" xmlns:xlink="http://www.w3.org/1999/xlink">
    <title>logo-white</title>
    <g id="logo-white" stroke="none" stroke-width="1" fill="none" fill-rule="evenodd">
        <g id="board" transform="translate(12.000000, 8.000000)" fill="#FFFFFF">
            <path d="M32,4 L32,24 L0,24 L0,4 L32,4 Z M30,8 L2,8 L2,22 L30,22 L30,8 Z" id="Rectangle-2"></path>
            <rect id="Rectangle" x="15" y="0" width="2" height="4"></rect>
            <rect id="Rectangle-Copy-2" x="15" y="24" width="2" height="8"></rect>
            <polygon id="Path-2" points="14 24 6 32 9 32 15 26 15 24"></polygon>
            <polygon id="Path-2-Copy" transform="translate(21.000000, 28.000000) scale(-1, 1) translate(-21.000000, -28.000000) " points="24 24 17 32 20 32 25 26 25 24"></polygon>
        </g>
        <path d="M62.812,32 C65.5493469,32 67.7242601,31.1195842 69.196,29.768 C70.6099708,28.4694684 71.62,26.5291843 71.62,23.96 C71.62,22.7919922 71.4119922,21.7119922 70.996,20.72 C69.7751531,17.8087183 66.9131285,15.92 62.812,15.92 L56.452,15.92 L56.452,32 L62.812,32 Z M62.668,28.568 L60.412,28.568 L60.412,19.352 L62.668,19.352 C65.5524377,19.352 67.636,21.1147395 67.636,23.96 C67.636,26.8055059 65.5528314,28.568 62.668,28.568 Z M82.2039766,31.9999766 C85.3108644,31.9999766 87.5079766,30.444608 87.5079766,27.4879766 C87.5079766,26.9119766 87.3999766,26.3479766 87.1839766,25.7959766 C86.7915651,24.7931475 85.6503785,23.8951766 84.4119766,23.7919766 L84.412,23.696 C84.844,23.648 85.2920078,23.4519922 85.756,23.108 C86.5406168,22.5263047 87.0519766,21.550892 87.0519766,20.312 C87.0519766,17.5799507 84.9806571,15.9199766 82.1799766,15.9199766 L73.8519766,15.9199766 L73.8519766,31.9999766 L82.2039766,31.9999766 Z M81.2679531,22.5679766 L77.8119531,22.5679766 L77.8119531,19.1119766 L81.4119766,19.1119766 C82.4025504,19.1119766 83.2119531,19.7893536 83.2119531,20.7679766 C83.2119531,21.8549316 82.3752073,22.5679766 81.2679531,22.5679766 Z M81.5079531,28.8079766 L77.8119531,28.8079766 L77.8119531,25.2799766 L81.5799531,25.2799766 C82.6546654,25.2799766 83.4759531,25.9528829 83.4759531,27.0079531 C83.4759531,28.1519067 82.6889072,28.8079766 81.5079531,28.8079766 Z M95.62,32.3360469 C96.5000078,32.3360469 97.3400078,32.1840547 98.14,31.8800469 C100.387882,31.0258214 102.22,29.0283539 102.22,25.9760234 C102.22,25.0640234 102.023992,24.1680312 101.632,23.2880234 C100.699899,21.1954927 98.469863,19.64 95.62,19.64 C93.6279692,19.64 92.0029639,20.3906921 90.904,21.4040234 C89.800197,22.421817 88.948,23.9681335 88.948,25.9760469 C88.948,28.0957043 89.961079,29.88458 91.264,30.8720469 C92.4800631,31.7936852 93.8078975,32.3360469 95.62,32.3360469 Z M95.62,29.0960234 C93.9337385,29.0960234 92.6440469,27.7445839 92.6440469,25.9760234 C92.6440469,24.2322804 93.8996765,22.8560234 95.6200469,22.8560234 C97.2402736,22.8560234 98.5240469,24.2998397 98.5240469,25.9760234 C98.5240469,27.6977297 97.2632006,29.0960234 95.62,29.0960234 Z M107.86,32.3599766 C109.283992,32.3599766 110.483992,31.9439844 111.46,31.1119766 L111.46,31.9999766 L115.156,31.9999766 L115.156,24.3679766 C115.156,23.6159844 115.028008,22.9399766 114.772,22.3399766 C114.004845,20.5420112 112.194876,19.592 109.636,19.592 C108.563992,19.592 107.644,19.772 106.876,20.132 C105.479254,20.7867247 104.468741,21.7967411 104.116,23.384 L108.014523,23.384 C108.34307,22.8480078 108.923565,22.616 109.756,22.616 C110.742359,22.616 111.46,23.3089982 111.46,24.296 L111.46,24.536 L108.388,24.536 C105.573875,24.536 103.372,25.7856084 103.372,28.4239766 C103.372,30.9000206 105.317244,32.3599766 107.86,32.3599766 Z M108.939977,29.4799766 C108.068168,29.4799766 107.259977,29.052262 107.259977,28.2319766 C107.259977,27.4304598 107.979856,26.9839766 108.819977,26.9839766 L111.459977,26.9839766 L111.459977,27.2479766 C111.459977,27.7279766 111.327977,28.1359766 111.063977,28.4719766 C110.606938,29.053662 109.898823,29.4799766 108.939977,29.4799766 Z M121.396,32.0000234 L121.396,28.2320234 C121.396,25.2240312 122.780008,23.7200234 125.548,23.7200234 L126.244,23.7200234 L126.412,19.8800234 C126.155992,19.8160156 125.867992,19.784 125.548,19.784 C123.515889,19.784 122.21633,20.9278514 121.396,22.2560234 L121.396,19.9520234 L117.556,19.9520234 L117.556,32.0000234 L121.396,32.0000234 Z M132.964,32.3600469 C134.483992,32.3600469 135.731992,31.9200547 136.708,31.0400469 L136.708,32.0000469 L140.548,32.0000469 L140.548,14.72 L136.708,14.72 L136.708,20.912 C135.731992,20.0319922 134.483992,19.592 132.964,19.592 C131.27304,19.592 129.798466,20.3766132 128.931977,21.272 C127.854089,22.385835 127.084,23.9215208 127.084,25.9760234 C127.084,27.9269474 127.840011,29.5532594 128.824,30.5960234 C129.755772,31.5834523 131.179121,32.3600469 132.964,32.3600469 Z M133.756,29.0960469 C131.974698,29.0960469 130.852,27.7135588 130.852,25.9760234 C130.852,24.2539583 131.99038,22.8560234 133.756,22.8560234 C135.416739,22.8560234 136.707977,24.2731624 136.707977,25.9760234 C136.707977,27.7201331 135.423635,29.0960469 133.756,29.0960469 Z" id="DBoard" fill="#FFFFFF" fill-rule="nonzero"></path>
    </g>
</svg>