<?xml version="1.0" encoding="UTF-8"?>
<svg width="192px" height="48px" viewBox="0 0 192 48" version="1.1" xmlns="http://www.w3.org/2000/svg" xmlns:xlink="http://www.w3.org/1999/xlink">
    <title>logo-white</title>
    <g id="logo-white" stroke="none" stroke-width="1" fill="none" fill-rule="evenodd">
        <path d="M44,12 L44,32 L12,32 L12,12 L44,12 Z M42,16 L14,16 L14,30 L42,30 L42,16 Z" id="Rectangle-2" fill="#FFFFFF"></path>
        <rect id="Rectangle" fill="#FFFFFF" x="26" y="8" width="4" height="4"></rect>
        <rect id="Rectangle-Copy-2" fill="#FFFFFF" x="26" y="32" width="4" height="8"></rect>
        <polygon id="Path-2" fill="#FFFFFF" points="23 32 15 40 20 40 26 34 26 32"></polygon>
        <polygon id="Path-2-Copy" fill="#FFFFFF" transform="translate(35.000000, 36.000000) scale(-1, 1) translate(-35.000000, -36.000000) " points="37 32 30 40 35 40 40 34 40 32"></polygon>
        <path d="M62.74728,33 C67.81992,33 71.41992,29.4887999 71.41992,24.5863198 C71.41992,19.6771198 67.8338401,16.1999996 62.74728,16.1999996 L55.9478401,16.1999996 L55.9478401,33 L62.74728,33 Z M62.5291201,28.7615999 L60.59664,28.7615999 L60.59664,20.4386396 L62.5291201,20.4386396 C65.0169602,20.4386396 66.6751201,22.0939197 66.6751201,24.5863198 C66.6751201,27.0647999 65.0169602,28.7615999 62.5291201,28.7615999 Z M81.5716798,33.0002402 C84.67272,33.0002402 87.0218401,30.9384001 87.0218401,28.2163202 C87.0218401,26.3829602 86.0284801,24.8798401 84.4454399,24.12936 L84.4449598,24.1291201 C85.7284797,23.3515203 86.5691997,22.0010402 86.5691997,20.4998401 C86.5691997,18.0177601 84.3955195,16.2002402 81.4166396,16.2002402 L73.8283198,16.2002402 L73.8283198,33.0002402 L81.5716798,33.0002402 Z M80.6116798,22.7289602 L78.2726396,22.7289602 L78.2726396,19.8038401 L80.6114396,19.8038401 C81.5793596,19.8038401 82.1764798,20.3944801 82.1764798,21.2664001 C82.17672,22.1383202 81.5795999,22.7289602 80.6116798,22.7289602 Z M80.7866396,29.2003202 L78.2723998,29.2003202 L78.2723998,26.1451201 L80.7866396,26.1451201 C81.7888795,26.1451201 82.4440796,26.7734399 82.4440796,27.6657598 C82.4440796,28.5719996 81.7888795,29.2003202 80.7866396,29.2003202 Z M95.7436802,33.4247999 C99.9554403,33.4247999 103.00992,30.5236798 103.00992,26.5199996 C103.00992,22.5026396 99.9554403,19.6154396 95.7436802,19.6154396 C91.5182402,19.6154396 88.4774403,22.5026396 88.4774403,26.5199996 C88.4774403,30.5236798 91.5182402,33.4247999 95.7436802,33.4247999 Z M95.7436802,29.4148799 C94.116,29.41464 92.94864,28.2335999 92.94864,26.5202399 C92.94864,24.8068799 94.116,23.6258397 95.7436802,23.6258397 C97.3713604,23.6258397 98.5387203,24.8171997 98.5387203,26.5204797 C98.5387203,28.2338397 97.3713604,29.4148799 95.7436802,29.4148799 Z M111.12336,33.4248003 C112.62864,33.4248003 113.97264,32.9294403 115.03392,32.0697601 L115.41624,32.9863202 L118.8672,32.9863202 L118.8672,20.0263202 L115.54008,20.02608 L115.08336,21.0283198 C114.0132,20.14536 112.64976,19.6355999 111.12336,19.6355999 C107.16048,19.6355999 104.32776,22.4923198 104.32776,26.50608 C104.32776,30.5337601 107.16048,33.4248003 111.12336,33.4248003 Z M111.72024,29.4722402 C110.04816,29.4722402 108.81912,28.2088802 108.81912,26.5164001 C108.81912,24.8342402 110.03808,23.5708802 111.72024,23.5708802 C113.392319,23.5708802 114.62136,24.8342402 114.62136,26.5164001 C114.62136,28.2088802 113.392319,29.4722402 111.72024,29.4722402 Z M126.14424,33 L126.14424,26.4095999 C126.14424,24.7564797 126.80616,24.0633596 128.38656,24.0633596 L130.1196,24.0633596 L130.1196,19.9783195 L128.93712,19.9783195 C127.39464,19.9783195 126.28128,20.4211198 125.36736,21.4783195 L124.67088,20.04 L121.68024,20.04 L121.68024,33 L126.14424,33 Z M137.64696,33.4384805 C139.15656,33.4384805 140.50152,32.9251205 141.55608,32.0376006 L141.97704,33.0000007 L145.2804,33.0000007 L145.2804,15.36 L140.86728,15.36 L140.86728,20.5149598 C139.93848,19.938 138.8436,19.6152001 137.64696,19.6152001 C133.67016,19.6152001 130.83744,22.4923202 130.83744,26.5200004 C130.83744,30.5476805 133.67016,33.4384805 137.64696,33.4384805 Z M138.24408,29.4859208 C136.572,29.4859208 135.34296,28.2124808 135.34296,26.520241 C135.34296,24.8277609 136.572,23.5543209 138.24408,23.5543209 C139.91616,23.5543209 141.1452,24.8277609 141.1452,26.520241 C141.1452,28.2124808 139.91616,29.4859208 138.24408,29.4859208 Z" id="DBoard" fill="#FFFFFF" fill-rule="nonzero"></path>
    </g>
</svg>