<?xml version="1.0" encoding="UTF-8"?>
<svg width="200px" height="50px" viewBox="0 0 200 50" version="1.1" xmlns="http://www.w3.org/2000/svg" xmlns:xlink="http://www.w3.org/1999/xlink">
    <title>logo-white</title>
    <g id="logo-white" stroke="none" stroke-width="1" fill="none" fill-rule="evenodd">
        <path d="M48,12 L48,34 L12,34 L12,12 L48,12 Z M46,16 L14,16 L14,32 L46,32 L46,16 Z" id="Rectangle-2" fill="#FFFFFF"></path>
        <rect id="Rectangle" fill="#FFFFFF" x="28" y="8" width="4" height="4"></rect>
        <rect id="Rectangle-Copy-2" fill="#FFFFFF" x="28" y="34" width="4" height="8"></rect>
        <polygon id="Path-2" fill="#FFFFFF" points="25 34 17 42 22 42 28 36 28 34"></polygon>
        <polygon id="Path-2-Copy" fill="#FFFFFF" transform="translate(37.000000, 38.000000) scale(-1, 1) translate(-37.000000, -38.000000) " points="39 34 32 42 37 42 42 36 42 34"></polygon>
        <path d="M68.8091,35.9999995 C75.1499001,35.9999995 79.6499001,31.6109999 79.6499001,25.4828998 C79.6499001,19.3463997 75.1673001,14.9999995 68.8091,14.9999995 L60.3098001,14.9999995 L60.3098001,35.9999995 L68.8091,35.9999995 Z M68.5364001,30.7019998 L66.1208,30.7019998 L66.1208,20.2982996 L68.5364001,20.2982996 C71.6462003,20.2982996 73.7189001,22.3673996 73.7189001,25.4828998 C73.7189001,28.5809999 71.6462003,30.7019998 68.5364001,30.7019998 Z M92.3395998,36.0003003 C96.2159,36.0003003 99.1523001,33.4230002 99.1523001,30.0204002 C99.1523001,27.7287003 97.9106001,25.8498001 95.9317999,24.9117 C97.5355997,23.9394003 98.5864996,22.2513002 98.5864996,20.3748001 C98.5864996,17.2722002 95.8693994,15.0003003 92.1457996,15.0003003 L82.6603998,15.0003003 L82.6603998,36.0003003 L92.3395998,36.0003003 Z M91.1395998,23.1612003 L88.2157996,23.1612003 L88.2157996,19.5048001 L91.1392995,19.5048001 C92.3491995,19.5048001 93.0955998,20.2431001 93.0955998,21.3330002 C93.0959,22.4229002 92.3494998,23.1612003 91.1395998,23.1612003 Z M91.3582996,31.2504002 L88.2154997,31.2504002 L88.2154997,27.4314001 L91.3582996,27.4314001 C92.6110994,27.4314001 93.4300995,28.2167999 93.4300995,29.3321997 C93.4300995,30.4649995 92.6110994,31.2504002 91.3582996,31.2504002 Z M110.0546,36.5309999 C115.3193,36.5309999 119.137401,32.9045998 119.137401,27.8999995 C119.137401,22.8782996 115.3193,19.2692995 110.0546,19.2692995 C104.7728,19.2692995 100.9718,22.8782996 100.9718,27.8999995 C100.9718,32.9045998 104.7728,36.5309999 110.0546,36.5309999 Z M110.0546,31.5185999 C108.02,31.5183 106.5608,30.0419998 106.5608,27.9002998 C106.5608,25.7585999 108.02,24.2822997 110.0546,24.2822997 C112.0892,24.2822997 113.5484,25.7714996 113.5484,27.9005997 C113.5484,30.0422997 112.0892,31.5185999 110.0546,31.5185999 Z M129.2792,36.5310004 C131.1608,36.5310004 132.8408,35.9118004 134.1674,34.8372002 L134.6453,35.9829002 L138.959,35.9829002 L138.959,19.7829002 L134.8001,19.7825999 L134.2292,21.0353998 C132.8915,19.9317 131.1872,19.2944998 129.2792,19.2944998 C124.3256,19.2944998 120.7847,22.8653998 120.7847,27.8825999 C120.7847,32.9172002 124.3256,36.5310004 129.2792,36.5310004 Z M130.025299,31.5903003 C127.9352,31.5903003 126.3989,30.0111003 126.3989,27.8955002 C126.3989,25.7928003 127.922599,24.2136003 130.025299,24.2136003 C132.115399,24.2136003 133.6517,25.7928003 133.6517,27.8955002 C133.6517,30.0111003 132.115399,31.5903003 130.025299,31.5903003 Z M148.0553,36 L148.0553,27.7619998 C148.0553,25.6955997 148.8827,24.8291995 150.8582,24.8291995 L153.0245,24.8291995 L153.0245,19.7228993 L151.5464,19.7228993 C149.6183,19.7228993 148.2266,20.2763997 147.0842,21.5978998 L146.2136,19.8 L142.4753,19.8 L142.4753,36 L148.0553,36 Z M162.4337,36.5481006 C164.3207,36.5481006 166.0019,35.9064006 167.3201,34.7970007 L167.8463,36.0000009 L171.9755,36.0000009 L171.9755,13.95 L166.4591,13.95 L166.4591,20.3936998 C165.2981,19.6725 163.9295,19.2690001 162.4337,19.2690001 C157.4627,19.2690001 153.9218,22.8654002 153.9218,27.9000005 C153.9218,32.9346007 157.4627,36.5481006 162.4337,36.5481006 Z M163.1801,31.607401 C161.09,31.607401 159.5537,30.015601 159.5537,27.9003012 C159.5537,25.7847011 161.09,24.1929012 163.1801,24.1929012 C165.2702,24.1929012 166.8065,25.7847011 166.8065,27.9003012 C166.8065,30.015601 165.2702,31.607401 163.1801,31.607401 Z" id="DBoard-outlines" fill="#FFFFFF" fill-rule="nonzero"></path>
    </g>
</svg>