<?xml version="1.0" encoding="UTF-8"?>
<svg width="160px" height="48px" viewBox="0 0 160 48" version="1.1" xmlns="http://www.w3.org/2000/svg" xmlns:xlink="http://www.w3.org/1999/xlink">
    <title>logo-white</title>
    <g id="logo-white" stroke="none" stroke-width="1" fill="none" fill-rule="evenodd">
        <g id="board" transform="translate(12.000000, 8.000000)" fill="#FFFFFF">
            <path d="M30,4 C31.1045695,4 32,4.8954305 32,6 L32,22 C32,23.1045695 31.1045695,24 30,24 L2,24 C0.8954305,24 1.3527075e-16,23.1045695 0,22 L0,6 C-1.3527075e-16,4.8954305 0.8954305,4 2,4 L30,4 Z M29,9 L3,9 C2.44771525,9 2,9.44771525 2,10 L2,10 L2,21 C2,21.5522847 2.44771525,22 3,22 L3,22 L29,22 C29.5522847,22 30,21.5522847 30,21 L30,21 L30,10 C30,9.44771525 29.5522847,9 29,9 L29,9 Z" id="Rectangle-2"></path>
            <path d="M16,0 C16.5522847,-1.01453063e-16 17,0.44771525 17,1 L17,4 L17,4 L15,4 L15,1 C15,0.44771525 15.4477153,1.01453063e-16 16,0 Z" id="Rectangle"></path>
            <path d="M15,24 L17,24 L17,31 C17,31.5522847 16.5522847,32 16,32 C15.4477153,32 15,31.5522847 15,31 L15,24 L15,24 Z" id="Rectangle-Copy-2"></path>
            <path d="M14,24 L7.06066017,30.9393398 C6.81801948,31.1819805 6.81801948,31.5753788 7.06066017,31.8180195 C7.17718034,31.9345397 7.3352156,32 7.5,32 L8.58578644,32 C8.85100293,32 9.10535684,31.8946432 9.29289322,31.7071068 L15,26 L15,26 L15,24 L14,24 Z" id="Path-2"></path>
            <path d="M24,24 L17.9877569,30.871135 C17.7402159,31.154039 17.7688833,31.5840497 18.0517873,31.8315907 C18.1758644,31.9401582 18.3351302,32 18.5,32 L19.5316251,32 C19.8284049,32 20.1098525,31.868177 20.2998463,31.6401844 L25,26 L25,26 L25,24 L24,24 Z" id="Path-2-Copy" transform="translate(21.000000, 28.000000) scale(-1, 1) translate(-21.000000, -28.000000) "></path>
        </g>
        <g id="quicksand" transform="translate(56.818000, 12.760000)" fill="#FFFFFF" fill-rule="nonzero">
            <path d="M7.8,1.04 C9.048,1.04 10.1573333,1.274 11.128,1.742 C12.0986667,2.21 12.9176667,2.86433333 13.585,3.705 C14.2523333,4.54566667 14.755,5.51633333 15.093,6.617 C15.431,7.71766667 15.6,8.892 15.6,10.14 C15.6,11.8213333 15.2966667,13.351 14.69,14.729 C14.0833333,16.107 13.2036667,17.2033333 12.051,18.018 C10.8983333,18.8326667 9.48133333,19.24 7.8,19.24 L1.586,19.24 C1.13533333,19.24 0.758333333,19.0883333 0.455,18.785 C0.151666667,18.4816667 7.10542736e-15,18.1046667 7.10542736e-15,17.654 L7.10542736e-15,2.626 C7.10542736e-15,2.17533333 0.151666667,1.79833333 0.455,1.495 C0.758333333,1.19166667 1.13533333,1.04 1.586,1.04 L7.8,1.04 Z M7.54,16.25 C8.632,16.25 9.52466667,15.9683333 10.218,15.405 C10.9113333,14.8416667 11.4183333,14.0963333 11.739,13.169 C12.0596667,12.2416667 12.22,11.232 12.22,10.14 C12.22,9.32533333 12.129,8.54966667 11.947,7.813 C11.765,7.07633333 11.4833333,6.42633333 11.102,5.863 C10.7206667,5.29966667 10.2353333,4.85333333 9.646,4.524 C9.05666667,4.19466667 8.35466667,4.03 7.54,4.03 L2.99,4.03 L3.25,3.796 L3.25,16.536 L3.094,16.25 L7.54,16.25 Z" id="Shape"></path>
            <path d="M26.728,1.04 C28.392,1.04 29.6313333,1.43 30.446,2.21 C31.2606667,2.99 31.668,4.14266667 31.668,5.668 C31.668,6.48266667 31.4686667,7.19766667 31.07,7.813 C30.6713333,8.42833333 30.082,8.905 29.302,9.243 C28.522,9.581 27.56,9.75 26.416,9.75 L26.52,8.58 C27.0573333,8.58 27.6726667,8.65366667 28.366,8.801 C29.0593333,8.94833333 29.731,9.20833333 30.381,9.581 C31.031,9.95366667 31.5683333,10.4736667 31.993,11.141 C32.4176667,11.8083333 32.63,12.662 32.63,13.702 C32.63,14.846 32.4436667,15.782 32.071,16.51 C31.6983333,17.238 31.2086667,17.8013333 30.602,18.2 C29.9953333,18.5986667 29.3453333,18.8716667 28.652,19.019 C27.9586667,19.1663333 27.2913333,19.24 26.65,19.24 L20.176,19.24 C19.7253333,19.24 19.3483333,19.0883333 19.045,18.785 C18.7416667,18.4816667 18.59,18.1046667 18.59,17.654 L18.59,2.626 C18.59,2.17533333 18.7416667,1.79833333 19.045,1.495 C19.3483333,1.19166667 19.7253333,1.04 20.176,1.04 L26.728,1.04 Z M26.26,4.108 L21.632,4.108 L21.97,3.692 L21.97,8.398 L21.658,8.164 L26.338,8.164 C26.8406667,8.164 27.2913333,7.99933333 27.69,7.67 C28.0886667,7.34066667 28.288,6.864 28.288,6.24 C28.288,5.49466667 28.1016667,4.953 27.729,4.615 C27.3563333,4.277 26.8666667,4.108 26.26,4.108 Z M26.468,11.232 L21.736,11.232 L21.97,11.024 L21.97,16.51 L21.71,16.25 L26.65,16.25 C27.4473333,16.25 28.08,16.0376667 28.548,15.613 C29.016,15.1883333 29.25,14.5513333 29.25,13.702 C29.25,12.922 29.094,12.3586667 28.782,12.012 C28.47,11.6653333 28.0973333,11.4486667 27.664,11.362 C27.2306667,11.2753333 26.832,11.232 26.468,11.232 Z" id="Shape"></path>
            <path d="M48.724,12.298 C48.724,13.7193333 48.4076667,14.9716667 47.775,16.055 C47.1423333,17.1383333 46.293,17.9833333 45.227,18.59 C44.161,19.1966667 42.9693333,19.5 41.652,19.5 C40.3346667,19.5 39.143,19.1966667 38.077,18.59 C37.011,17.9833333 36.1616667,17.1383333 35.529,16.055 C34.8963333,14.9716667 34.58,13.7193333 34.58,12.298 C34.58,10.8766667 34.8963333,9.62433333 35.529,8.541 C36.1616667,7.45766667 37.011,6.60833333 38.077,5.993 C39.143,5.37766667 40.3346667,5.07 41.652,5.07 C42.9693333,5.07 44.161,5.37766667 45.227,5.993 C46.293,6.60833333 47.1423333,7.45766667 47.775,8.541 C48.4076667,9.62433333 48.724,10.8766667 48.724,12.298 Z M45.604,12.298 C45.604,11.414 45.4263333,10.647 45.071,9.997 C44.7156667,9.347 44.239,8.84 43.641,8.476 C43.043,8.112 42.38,7.93 41.652,7.93 C40.924,7.93 40.261,8.112 39.663,8.476 C39.065,8.84 38.5883333,9.347 38.233,9.997 C37.8776667,10.647 37.7,11.414 37.7,12.298 C37.7,13.1646667 37.8776667,13.923 38.233,14.573 C38.5883333,15.223 39.065,15.73 39.663,16.094 C40.261,16.458 40.924,16.64 41.652,16.64 C42.38,16.64 43.043,16.458 43.641,16.094 C44.239,15.73 44.7156667,15.223 45.071,14.573 C45.4263333,13.923 45.604,13.1646667 45.604,12.298 Z" id="Shape"></path>
            <path d="M62.582,5.07 C63.0326667,5.07 63.4053333,5.21733333 63.7,5.512 C63.9946667,5.80666667 64.142,6.188 64.142,6.656 L64.142,17.654 C64.142,18.1046667 63.9946667,18.4816667 63.7,18.785 C63.4053333,19.0883333 63.0326667,19.24 62.582,19.24 C62.1313333,19.24 61.7586667,19.0883333 61.464,18.785 C61.1693333,18.4816667 61.022,18.1046667 61.022,17.654 L61.022,16.38 L61.594,16.614 C61.594,16.8393333 61.4726667,17.1123333 61.23,17.433 C60.9873333,17.7536667 60.658,18.07 60.242,18.382 C59.826,18.694 59.3363333,18.9583333 58.773,19.175 C58.2096667,19.3916667 57.5986667,19.5 56.94,19.5 C55.744,19.5 54.6606667,19.1923333 53.69,18.577 C52.7193333,17.9616667 51.9523333,17.1123333 51.389,16.029 C50.8256667,14.9456667 50.544,13.702 50.544,12.298 C50.544,10.8766667 50.8256667,9.62433333 51.389,8.541 C51.9523333,7.45766667 52.7106667,6.60833333 53.664,5.993 C54.6173333,5.37766667 55.6746667,5.07 56.836,5.07 C57.5813333,5.07 58.266,5.18266667 58.89,5.408 C59.514,5.63333333 60.0556667,5.91933333 60.515,6.266 C60.9743333,6.61266667 61.3296667,6.96366667 61.581,7.319 C61.8323333,7.67433333 61.958,7.97333333 61.958,8.216 L61.022,8.554 L61.022,6.656 C61.022,6.20533333 61.1693333,5.82833333 61.464,5.525 C61.7586667,5.22166667 62.1313333,5.07 62.582,5.07 Z M57.33,16.64 C58.0926667,16.64 58.76,16.4493333 59.332,16.068 C59.904,15.6866667 60.3503333,15.1666667 60.671,14.508 C60.9916667,13.8493333 61.152,13.1126667 61.152,12.298 C61.152,11.466 60.9916667,10.7206667 60.671,10.062 C60.3503333,9.40333333 59.904,8.88333333 59.332,8.502 C58.76,8.12066667 58.0926667,7.93 57.33,7.93 C56.5846667,7.93 55.926,8.12066667 55.354,8.502 C54.782,8.88333333 54.3356667,9.40333333 54.015,10.062 C53.6943333,10.7206667 53.534,11.466 53.534,12.298 C53.534,13.1126667 53.6943333,13.8493333 54.015,14.508 C54.3356667,15.1666667 54.782,15.6866667 55.354,16.068 C55.926,16.4493333 56.5846667,16.64 57.33,16.64 Z" id="Shape"></path>
            <path d="M69.082,19.24 C68.6313333,19.24 68.2586667,19.0883333 67.964,18.785 C67.6693333,18.4816667 67.522,18.1046667 67.522,17.654 L67.522,6.916 C67.522,6.46533333 67.6693333,6.08833333 67.964,5.785 C68.2586667,5.48166667 68.6313333,5.33 69.082,5.33 C69.5326667,5.33 69.9053333,5.48166667 70.2,5.785 C70.4946667,6.08833333 70.642,6.46533333 70.642,6.916 L70.642,9.36 L70.46,7.618 C70.6506667,7.202 70.8976667,6.83366667 71.201,6.513 C71.5043333,6.19233333 71.8466667,5.92366667 72.228,5.707 C72.6093333,5.49033333 73.0166667,5.33 73.45,5.226 C73.8833333,5.122 74.3166667,5.07 74.75,5.07 C75.27,5.07 75.7076667,5.21733333 76.063,5.512 C76.4183333,5.80666667 76.596,6.15333333 76.596,6.552 C76.596,7.124 76.4486667,7.53566667 76.154,7.787 C75.8593333,8.03833333 75.5386667,8.164 75.192,8.164 C74.8626667,8.164 74.5636667,8.10333333 74.295,7.982 C74.0263333,7.86066667 73.7186667,7.8 73.372,7.8 C73.06,7.8 72.7436667,7.87366667 72.423,8.021 C72.1023333,8.16833333 71.8076667,8.398 71.539,8.71 C71.2703333,9.022 71.0536667,9.40766667 70.889,9.867 C70.7243333,10.3263333 70.642,10.868 70.642,11.492 L70.642,17.654 C70.642,18.1046667 70.4946667,18.4816667 70.2,18.785 C69.9053333,19.0883333 69.5326667,19.24 69.082,19.24 Z" id="Path"></path>
            <path d="M90.064,0 C90.5146667,0 90.8873333,0.147333333 91.182,0.442 C91.4766667,0.736666667 91.624,1.118 91.624,1.586 L91.624,17.654 C91.624,18.1046667 91.4766667,18.4816667 91.182,18.785 C90.8873333,19.0883333 90.5146667,19.24 90.064,19.24 C89.6133333,19.24 89.2406667,19.0883333 88.946,18.785 C88.6513333,18.4816667 88.504,18.1046667 88.504,17.654 L88.504,16.38 L89.076,16.614 C89.076,16.8393333 88.9546667,17.1123333 88.712,17.433 C88.4693333,17.7536667 88.14,18.07 87.724,18.382 C87.308,18.694 86.8183333,18.9583333 86.255,19.175 C85.6916667,19.3916667 85.0806667,19.5 84.422,19.5 C83.226,19.5 82.1426667,19.1923333 81.172,18.577 C80.2013333,17.9616667 79.4343333,17.1123333 78.871,16.029 C78.3076667,14.9456667 78.026,13.702 78.026,12.298 C78.026,10.8766667 78.3076667,9.62433333 78.871,8.541 C79.4343333,7.45766667 80.1926667,6.60833333 81.146,5.993 C82.0993333,5.37766667 83.1566667,5.07 84.318,5.07 C85.0633333,5.07 85.748,5.18266667 86.372,5.408 C86.996,5.63333333 87.5376667,5.91933333 87.997,6.266 C88.4563333,6.61266667 88.8116667,6.96366667 89.063,7.319 C89.3143333,7.67433333 89.44,7.97333333 89.44,8.216 L88.504,8.554 L88.504,1.586 C88.504,1.13533333 88.6513333,0.758333333 88.946,0.455 C89.2406667,0.151666667 89.6133333,0 90.064,0 Z M84.812,16.64 C85.5746667,16.64 86.242,16.4493333 86.814,16.068 C87.386,15.6866667 87.8323333,15.1666667 88.153,14.508 C88.4736667,13.8493333 88.634,13.1126667 88.634,12.298 C88.634,11.466 88.4736667,10.7206667 88.153,10.062 C87.8323333,9.40333333 87.386,8.88333333 86.814,8.502 C86.242,8.12066667 85.5746667,7.93 84.812,7.93 C84.0666667,7.93 83.408,8.12066667 82.836,8.502 C82.264,8.88333333 81.8176667,9.40333333 81.497,10.062 C81.1763333,10.7206667 81.016,11.466 81.016,12.298 C81.016,13.1126667 81.1763333,13.8493333 81.497,14.508 C81.8176667,15.1666667 82.264,15.6866667 82.836,16.068 C83.408,16.4493333 84.0666667,16.64 84.812,16.64 Z" id="Shape"></path>
        </g>
    </g>
</svg>