<?xml version="1.0" encoding="UTF-8"?>
<svg width="48px" height="48px" viewBox="0 0 48 48" version="1.1" xmlns="http://www.w3.org/2000/svg" xmlns:xlink="http://www.w3.org/1999/xlink">
    <title>icon-delete</title>
    <g id="icon-delete" stroke="none" stroke-width="1" fill="none" fill-rule="evenodd">
        <path d="M10,15 L10,13 C10,12.4477153 10.4477153,12 11,12 L37,12 C37.5522847,12 38,12.4477153 38,13 L38,15 L38,15 L10,15 Z" id="Path-3" fill="#FFFFFF"></path>
        <path d="M36,15 L36,41 L12,41 L12,15 L36,15 Z M26,17 L22,17 L22,39 L26,39 L26,17 Z M34,17 L30,17 L30,39 L34,39 L34,17 Z M18,17 L14,17 L14,39 L18,39 L18,17 Z" id="Path-6" fill="#FFFFFF"></path>
        <path d="M26,9 C27.6568542,9 29,10.3431458 29,12 C29,13.6568542 27.6568542,15 26,15 L22,15 C20.3431458,15 19,13.6568542 19,12 C19,10.3431458 20.3431458,9 22,9 L26,9 Z M26,11 L22,11 C21.4477153,11 21,11.4477153 21,12 L21,12 L21,13 C21,13.5522847 21.4477153,14 22,14 L22,14 L26,14 C26.5522847,14 27,13.5522847 27,13 L27,13 L27,12 C27,11.4477153 26.5522847,11 26,11 L26,11 Z" id="Rectangle-2" fill="#FFFFFF"></path>
    </g>
</svg>