<?xml version="1.0" encoding="UTF-8"?>
<svg width="48px" height="48px" viewBox="0 0 48 48" version="1.1" xmlns="http://www.w3.org/2000/svg" xmlns:xlink="http://www.w3.org/1999/xlink">
    <title>icon-github</title>
    <g id="icon-github" stroke="none" stroke-width="1" fill="none" fill-rule="evenodd">
        <path d="M24,8 C32.836556,8 40,15.163444 40,24 C40,31.2946359 35.1183904,37.4491109 28.4437619,39.374834 C28.1343281,39.141899 27.9342384,38.8247689 27.9342384,38.4349788 L27.9342384,32.3428882 L27.9342384,32.3428882 L27.5025506,31.165503 C30.9142123,30.3979495 33.2136782,28.8632404 34.4009483,26.5613755 C36.1818534,23.1085783 34.6312024,18.8807796 33.190018,18.1280103 C33.7573762,16.0771787 33.6214349,14.3678419 32.7821942,13 C30.8976086,13 29.2816233,13.683921 27.9342384,15.0517629 C25.0076038,14.0098453 23.0155743,14.0098453 19.8499292,15.0517629 C18.5697955,13.683921 16.9826744,13 15.0885658,13 C14.3756295,14.3678419 14.2683267,16.0771787 14.7666574,18.1280103 C13.3439356,19.5837799 12.2116421,23.4581301 13.5842147,26.6985617 C14.4992631,28.8588494 16.8403346,30.3478298 20.6074292,31.165503 L20.2664011,33.4200611 C19.0679546,33.6591944 17.9730244,33.5691471 16.9816106,33.1499192 C15.4944898,32.5210773 14.8133808,30.7120647 13.792427,30.4154397 C13.1117911,30.2176898 12.5143155,30.2176898 12,30.4154397 C12.8997769,31.3378462 13.4972525,31.980329 13.792427,32.3428882 C14.2351888,32.8867271 14.7257577,34.8172735 16.4884849,35.5769272 C17.6636364,36.083363 18.9229418,36.2243873 20.2664011,36 L20.2664011,38.4349788 C20.196369,38.8665434 20.0397455,39.2023402 19.7965307,39.4423691 C12.9985755,37.5955407 8,31.3815103 8,24 C8,15.163444 15.163444,8 24,8 Z" id="Oval-2" fill="#FFFFFF"></path>
    </g>
</svg>