<?xml version="1.0" encoding="UTF-8"?>
<svg width="48px" height="48px" viewBox="0 0 48 48" version="1.1" xmlns="http://www.w3.org/2000/svg" xmlns:xlink="http://www.w3.org/1999/xlink">
    <title>icon-swap-vertical</title>
    <g id="icon-swap-vertical" stroke="none" stroke-width="1" fill="none" fill-rule="evenodd">
        <path d="M20,9.47353678 L20,37 C20,37.5522847 19.5522847,38 19,38 L17,38 C16.4477153,38 16,37.5522847 16,37 L16,23 C16,22.4477153 15.5522847,22 15,22 L13.575782,22 C13.0234973,22 12.575782,21.5522847 12.575782,21 C12.575782,20.852792 12.6082826,20.7073995 12.6709633,20.574203 L18.0951813,9.04773974 C18.3303425,8.54802217 18.9260795,8.33355687 19.425797,8.56871808 C19.7762895,8.73365569 20,9.08617473 20,9.47353678 Z" id="Path-8" fill="#FFFFFF"></path>
        <path d="M36,14.4735368 L36,42 C36,42.5522847 35.5522847,43 35,43 L33,43 C32.4477153,43 32,42.5522847 32,42 L32,28 C32,27.4477153 31.5522847,27 31,27 L29.575782,27 C29.0234973,27 28.575782,26.5522847 28.575782,26 C28.575782,25.852792 28.6082826,25.7073995 28.6709633,25.574203 L34.0951813,14.0477397 C34.3303425,13.5480222 34.9260795,13.3335569 35.425797,13.5687181 C35.7762895,13.7336557 36,14.0861747 36,14.4735368 Z" id="Path-8-Copy" fill="#FFFFFF" transform="translate(32.000000, 26.500000) rotate(180.000000) translate(-32.000000, -26.500000) "></path>
    </g>
</svg>