<?xml version="1.0" encoding="UTF-8"?>
<svg width="48px" height="48px" viewBox="0 0 48 48" version="1.1" xmlns="http://www.w3.org/2000/svg" xmlns:xlink="http://www.w3.org/1999/xlink">
    <title>icon-upload</title>
    <g id="icon-upload" stroke="none" stroke-width="1" fill="none" fill-rule="evenodd">
        <path d="M23.375305,29.500244 L16.226086,23.7808688 C15.7948241,23.4358593 15.7249027,22.8065669 16.0699122,22.375305 C16.2596844,22.1380897 16.5469973,22 16.8507811,22 L20,22 C20.5522847,22 21,21.5522847 21,21 L21,13 C21,12.4477153 21.4477153,12 22,12 L26,12 C26.5522847,12 27,12.4477153 27,13 L27,21 C27,21.5522847 27.4477153,22 28,22 L31.1492189,22 C31.7015037,22 32.1492189,22.4477153 32.1492189,23 C32.1492189,23.3037837 32.0111292,23.5910966 31.773914,23.7808688 L24.624695,29.500244 C24.2594764,29.7924189 23.7405236,29.7924189 23.375305,29.500244 Z" id="Path-10" fill="#FFFFFF" transform="translate(24.000000, 21.000000) scale(1, -1) translate(-24.000000, -21.000000) "></path>
        <path d="M10,29 L10,35 C10,35.5522847 10.4477153,36 11,36 L37,36 C37.5522847,36 38,35.5522847 38,35 L38,29 C38,28.4477153 37.5522847,28 37,28 L35,28 C34.4477153,28 34,28.4477153 34,29 L34,31.2077207 C34,31.7600054 33.5522847,32.2077207 33,32.2077207 L15,32.2077207 C14.4477153,32.2077207 14,31.7600054 14,31.2077207 L14,29 C14,28.4477153 13.5522847,28 13,28 L11,28 C10.4477153,28 10,28.4477153 10,29 Z" id="Path-9" fill="#FFFFFF"></path>
    </g>
</svg>