<?xml version="1.0" encoding="UTF-8"?>
<svg width="48px" height="48px" viewBox="0 0 48 48" version="1.1" xmlns="http://www.w3.org/2000/svg" xmlns:xlink="http://www.w3.org/1999/xlink">
    <title>icon-terrier</title>
    <g id="icon-terrier" stroke="none" stroke-width="1" fill="none" fill-rule="evenodd">
        <path d="M33.7602041,17.4224896 C33.3928571,18.7248636 33.0714286,19.679938 32.7959184,20.2877125 C32.6581633,21.8505614 32.5204082,23.93436 32.244898,25.4972088 C32.0612245,26.5391081 31.6938776,27.7546573 31.1428571,29.1438563 C31.2688026,33.0172946 31.3606393,35.1879181 31.4183673,35.6557267 C31.5049594,36.3574395 32.1071429,36.6976259 32.1071429,37.2185756 C32.1071429,37.7395252 31.8316327,38 30.4540816,38 C29.0765306,38 28.1122449,37.4790504 27.6989796,35.9162015 C27.4234694,34.8743022 27.2397959,33.8324029 27.1479592,32.7905037 C26.7806122,30.7935301 26.4591837,29.577981 26.1836735,29.1438563 C25.7704082,28.4926692 22.3265306,27.45077 19.9846939,27.45077 C17.6428571,27.45077 18.1938776,28.3624318 16.2653061,30.1857555 C14.3367347,32.0090792 13.2346939,32.6602663 12.5459184,33.7021655 C12.2216555,34.1926727 11.7193878,34.48359 11.7193878,35.3952518 C11.7193878,36.3069137 12.2704082,36.9428795 12.2704082,37.2185756 C12.2704082,37.5658753 11.7653061,37.8263501 10.755102,38 C9.56122449,38 8.82653061,37.8697626 8.55102041,37.6092878 C8.1377551,37.2185756 8,36.5673885 8,35.6557267 C8,35.0479521 8.22959184,33.8758154 8.68877551,32.1393166 C9.69897959,30.8369426 10.3877551,29.8818682 10.755102,29.2740937 C11.3061224,28.3624318 11.994898,24.8460218 12.2704082,23.4134103 C12.4540816,22.458336 12.9591837,21.6334991 13.7857143,20.9388996 C12.7755102,19.6365255 12.0867347,18.5946262 11.7193878,17.8132018 C11.1683673,16.6410651 10.8928571,14.687504 11.4438776,14.5572666 C11.994898,14.4270292 12.5459184,16.5108277 13.372449,17.552727 C13.9234694,18.2473265 14.6122449,18.8985135 15.4387755,19.5062881 C17.1836735,19.5062881 18.4693878,19.5062881 19.2959184,19.5062881 C20.5357143,19.5062881 22.1887755,19.6365255 23.5663265,19.2458133 C24.9438776,18.8551011 26.4591837,18.203914 27.9744898,16.3805903 C29.4897959,14.5572666 31.005102,11.9525184 32.3826531,11.4315688 C33.7602041,10.9106192 35.4132653,10.9106192 35.5510204,11.171094 C35.6887755,11.4315688 35.4132653,12.0827558 35.8265306,12.3432307 C36.2397959,12.6037055 37.0663265,13.1246551 37.0663265,13.3851299 C37.0663265,13.6456047 37.0663265,14.036317 38.1683673,14.8177414 C39.2704082,15.5991659 39.9591837,16.2503529 39.9591837,17.1620147 C39.9591837,18.0736766 38.5816327,20.4029146 37.4795918,20.6633894 C36.377551,20.9238642 35.5510204,19.2653061 35.1377551,18.3341514 C34.6785714,18.0736766 34.2193878,17.7697893 33.7602041,17.4224896 Z" id="Path-2" fill="#FFFFFF"></path>
    </g>
</svg>