<?xml version="1.0" encoding="UTF-8"?>
<svg width="48px" height="48px" viewBox="0 0 48 48" version="1.1" xmlns="http://www.w3.org/2000/svg" xmlns:xlink="http://www.w3.org/1999/xlink">
    <title>icon-undo</title>
    <g id="icon-undo" stroke="none" stroke-width="1" fill="none" fill-rule="evenodd">
        <polygon id="Path-5" fill="#FFFFFF" points="13 21 13 13 21 21"></polygon>
        <path d="M24,12 C30.627417,12 36,17.372583 36,24 C36,30.627417 30.627417,36 24,36 C22.8954305,36 22,35.1045695 22,34 C22,32.8954305 22.8954305,32 24,32 C28.418278,32 32,28.418278 32,24 C32,19.581722 28.418278,16 24,16 C19.581722,16 16,19.581722 16,24 C16,25.1045695 15.1045695,26 14,26 C12.8954305,26 12,25.1045695 12,24 C12,17.372583 17.372583,12 24,12 Z" id="Oval" fill="#FFFFFF" fill-rule="nonzero" transform="translate(24.000000, 24.000000) rotate(45.000000) translate(-24.000000, -24.000000) "></path>
    </g>
</svg>