<?xml version="1.0" encoding="UTF-8"?>
<svg width="48px" height="48px" viewBox="0 0 48 48" version="1.1" xmlns="http://www.w3.org/2000/svg" xmlns:xlink="http://www.w3.org/1999/xlink">
    <title>icon-blank-document</title>
    <g id="icon-blank-document" stroke="none" stroke-width="1" fill="none" fill-rule="evenodd">
        <g id="stroke-copy" transform="translate(12.000000, 8.000000)" fill="#FFFFFF" fill-rule="nonzero">
            <path d="M16.2928932,0.292893219 L23.7071068,7.70710678 C23.8946432,7.89464316 24,8.14899707 24,8.41421356 L24,31 C24,31.5522847 23.5522847,32 23,32 L1,32 C0.44771525,32 5.11724585e-16,31.5522847 0,31 L0,1 C-6.76353751e-17,0.44771525 0.44771525,1.01453063e-16 1,0 L15.5857864,0 C15.8510029,3.5039942e-15 16.1053568,0.10535684 16.2928932,0.292893219 Z M14.7567864,2 L3,2 C2.44771525,2 2,2.44771525 2,3 L2,29 C2,29.5522847 2.44771525,30 3,30 L21,30 C21.5522847,30 22,29.5522847 22,29 L22,9.24321356 C22,8.97799707 21.8946432,8.72364316 21.7071068,8.53610678 L15.4638932,2.29289322 C15.2763568,2.10535684 15.0220029,2 14.7567864,2 Z" id="Path-12"></path>
            <path d="M16,1 L16,7 C16,7.55228475 16.4477153,8 17,8 L23,8 L23,8 L23,10 L15,10 C14.4477153,10 14,9.55228475 14,9 L14,1 L14,1 L16,1 Z" id="Path-13"></path>
        </g>
    </g>
</svg>