<?xml version="1.0" encoding="UTF-8"?>
<svg width="48px" height="48px" viewBox="0 0 48 48" version="1.1" xmlns="http://www.w3.org/2000/svg" xmlns:xlink="http://www.w3.org/1999/xlink">
    <title>icon-plus-entity</title>
    <g id="icon-plus-entity" stroke="none" stroke-width="1" fill="none" fill-rule="evenodd">
        <path d="M39,8 C39.5522847,8 40,8.44771525 40,9 L40,37 C40,37.5522847 39.5522847,38 39,38 L9,38 C8.44771525,38 8,37.5522847 8,37 L8,9 C8,8.44771525 8.44771525,8 9,8 L39,8 Z M37,16 L11,16 C10.4477153,16 10,16.4477153 10,17 L10,17 L10,35 C10,35.5522847 10.4477153,36 11,36 L11,36 L37,36 C37.5522847,36 38,35.5522847 38,35 L38,35 L38,17 C38,16.4477153 37.5522847,16 37,16 L37,16 Z" id="Rectangle-2" fill="#FFFFFF"></path>
        <g id="plus" transform="translate(18.000000, 20.000000)" fill="#FFFFFF">
            <rect id="Rectangle" x="5" y="0" width="2" height="12" rx="1"></rect>
            <rect id="Rectangle-Copy-2" x="0" y="5" width="12" height="2" rx="1"></rect>
        </g>
    </g>
</svg>