<?xml version="1.0" encoding="UTF-8"?>
<svg width="48px" height="48px" viewBox="0 0 48 48" version="1.1" xmlns="http://www.w3.org/2000/svg" xmlns:xlink="http://www.w3.org/1999/xlink">
    <title>icon-blank-document</title>
    <g id="icon-blank-document" stroke="none" stroke-width="1" fill="none" fill-rule="evenodd">
        <g id="stroke-copy" transform="translate(12.000000, 8.000000)" fill="#FFFFFF" fill-rule="nonzero">
            <path d="M16.5857864,0.585786438 L23.4142136,7.41421356 C23.7892863,7.78928632 24,8.29799415 24,8.82842712 L24,30 C24,31.1045695 23.1045695,32 22,32 L2,32 C0.8954305,32 -5.30863065e-16,31.1045695 0,30 L0,2 C-1.3527075e-16,0.8954305 0.8954305,2.02906125e-16 2,0 L15.1715729,0 C15.7020059,-1.8737958e-15 16.2107137,0.210713681 16.5857864,0.585786438 Z M14.7567864,2 L3,2 C2.44771525,2 2,2.44771525 2,3 L2,29 C2,29.5522847 2.44771525,30 3,30 L21,30 C21.5522847,30 22,29.5522847 22,29 L22,9.24321356 C22,8.97799707 21.8946432,8.72364316 21.7071068,8.53610678 L15.4638932,2.29289322 C15.2763568,2.10535684 15.0220029,2 14.7567864,2 Z" id="Path-12"></path>
            <path d="M16,1 L16,7 C16,7.55228475 16.4477153,8 17,8 L23,8 L23,8 L23,10 L15,10 C14.4477153,10 14,9.55228475 14,9 L14,1 L14,1 L16,1 Z" id="Path-13"></path>
        </g>
    </g>
</svg>