<?xml version="1.0" encoding="UTF-8"?>
<svg width="48px" height="48px" viewBox="0 0 48 48" version="1.1" xmlns="http://www.w3.org/2000/svg" xmlns:xlink="http://www.w3.org/1999/xlink">
    <title>icon-terrier</title>
    <g id="icon-terrier" stroke="none" stroke-width="1" fill="none" fill-rule="evenodd">
        <text id="Type-something" font-family="MollenPersonalUse-Bold, Mollen Personal Use" font-size="24" font-weight="bold"></text>
        <path d="M9.94996541,35 C9.81680405,34.8144231 9.89088057,34.4320513 10.1161966,34 C10.0143414,34.4169872 9.94996541,34.7798077 9.94996541,34.9823718 L9.94996541,35 Z M40.5773523,18.4374291 L40.5764704,18.4369985 C40.4794655,18.328045 40.3498316,18.2104786 40.1818366,18.0825767 C38.8131848,17.0442889 38.283185,16.3759261 38.283185,15.413432 C38.283185,15.1205926 38.1160719,14.7037272 37.8144746,14.2717891 C37.4052901,13.6835265 36.7434517,13.0685638 35.9127365,12.700792 C36.2019876,12.3605816 36.4903569,11.9859194 36.6799575,11.6508767 C37.1954066,10.7383376 37.1195664,9.40290392 36.2840009,10.2934801 C35.5564637,11.0682125 33.8870965,11.785669 33.3751749,12.4970964 C32.5316727,12.7150033 31.929801,13.1818237 31.5819059,13.8002316 C31.0488196,14.3501667 30.1330046,15.2950043 29.3578467,16.0964368 C28.1849686,17.3087056 27.9931633,18.460684 26.8930389,18.2823965 C25.7924735,18.1036784 21.7601537,18.5916004 18.8993892,18.4912599 C16.4019524,18.4029774 13.624524,18.8284558 12.276155,19.5588317 C12.276155,19.5588317 12.2426442,19.552372 12.1875278,19.5394526 C11.8801984,19.4623669 10.8585598,19.1462727 10.3237097,18.2823965 C10.1058895,17.9365877 9.96964163,17.5020657 9.9872789,16.9585903 C10.0617963,14.8092355 13.2528186,14.5814237 13.985647,15.3807029 C14.7184754,16.182566 14.2784256,14.2760956 12.592744,14.0396708 C10.9048576,13.8053993 8.85187993,14.2437971 8.92463365,17.3194718 C8.93742066,17.9318506 9.07410947,18.4585308 9.28707945,18.9055415 C9.32720423,18.9895175 9.3712974,19.0730628 9.41759522,19.1505791 C9.89688791,19.9912004 10.6495582,20.5152967 11.2968459,20.7818667 C11.2236512,21.0118317 11.1663301,21.2676355 11.1292918,21.5385119 C11.0556563,22.041076 11.0477195,22.5966095 11.1200323,23.1340558 C10.3457563,24.8049628 10.6751323,28.268219 10.3660392,29.3917748 C9.98022399,30.7883602 9.70552358,30.6272985 9.21079828,31.0570834 C8.71519112,31.4868682 8,34.817916 8,35.7313165 C8,36.6451476 8.05511645,37 9.21079828,37 C9.65305271,37 9.88454183,36.8682223 9.97537374,36.6795993 C10.1521873,36.7506559 10.4004318,36.7838156 10.7505316,36.7838156 C11.9057725,36.7838156 11.631072,35.8928088 11.1359058,35.4091932 C10.6407396,34.9255776 11.6857476,32.3468685 13.1655142,31.5945298 C14.6448398,30.842191 15.811104,29.6062366 16.5822934,27.8866666 C17.0461535,26.8531158 17.668308,26.2674371 18.0920434,25.9629703 C20.3081658,26.1619288 22.4912183,26.4741472 23.667183,26.9241724 C24.6725071,27.310462 26.1703519,27.4676479 27.6007342,27.2239022 C27.4913831,27.9861458 27.3815911,28.7604476 27.3815911,29.1097016 C27.3815911,29.8103628 27.6567325,33.8149412 27.6567325,35.0160133 C27.6567325,36.2196692 27.7118489,36.9694241 28.3719236,36.9694241 C28.9204425,36.9694241 29.4883625,37.1003405 29.6770812,36.7739108 C29.9407584,36.7437656 30.1228631,36.6326588 30.1321227,36.3036452 C30.1506418,35.6533695 29.5271645,35.4027335 29.472048,34.8019821 C29.4173725,34.2012308 30.0774472,28.3935371 30.3521476,27.7927857 C30.6272889,27.192465 31.4923968,24.7881676 31.4923968,24.7881676 C31.5633868,24.5952382 31.5854334,24.4195345 31.5770557,24.257181 C32.5986943,22.2107505 33.3496009,20.2073847 34.3439017,19.3740845 C34.4854408,19.4167184 34.6318301,19.4571992 34.7888017,19.4925121 C37.4467377,20.0855119 38.7386674,20.6806648 39.5746737,20.0855119 C39.8846487,19.8658823 40.2365121,19.6759674 40.4860794,19.4718411 C40.8273605,19.5446203 41.024457,19.1019161 40.9975601,18.8336236 C40.9697814,18.5649004 40.5773523,18.4374291 40.5773523,18.4374291 L40.5773523,18.4374291 Z" id="Fill-5" fill="#FFFFFF"></path>
    </g>
</svg>