<?xml version="1.0" encoding="UTF-8"?>
<svg width="48px" height="48px" viewBox="0 0 48 48" version="1.1" xmlns="http://www.w3.org/2000/svg" xmlns:xlink="http://www.w3.org/1999/xlink">
    <title>icon-delete</title>
    <g id="icon-delete" stroke="none" stroke-width="1" fill="none" fill-rule="evenodd">
        <path d="M10,15 L10,14 C10,12.8954305 10.8954305,12 12,12 L36,12 C37.1045695,12 38,12.8954305 38,14 L38,15 L38,15 L10,15 Z" id="Path-3" fill="#FFFFFF"></path>
        <path d="M36,15 L34.1420467,39.153393 C34.0618933,40.1953873 33.1930103,41 32.1479377,41 L32.1479377,41 L15.8520623,41 C14.8069897,41 13.9381067,40.1953873 13.8579533,39.153393 L13.8579533,39.153393 L12,15 L36,15 Z M25,17 L23,17 C22.4477153,17 22,17.4477153 22,18 L22,38 C22,38.5522847 22.4477153,39 23,39 L25,39 C25.5522847,39 26,38.5522847 26,38 L26,18 C26,17.4477153 25.5522847,17 25,17 Z M32.9049672,17 L30.955578,17 C30.4209498,17 29.9808857,17.4205156 29.9566094,17.9545923 L29.0475185,37.9545923 C29.0224406,38.5063074 29.4493643,38.9738906 30.0010794,38.9989685 C30.0162055,38.9996561 30.0313453,39 30.0464871,39 L31.0867854,39 C31.6039886,39 32.0358532,38.6056149 32.0826786,38.0905357 L33.9008604,18.0905357 C33.9508619,17.5405191 33.5455196,17.0541083 32.9955029,17.0041068 C32.9654019,17.0013703 32.9351923,17 32.9049672,17 Z M17.044422,17 L15.0950328,17 C14.5427481,17 14.0950328,17.4477153 14.0950328,18 C14.0950328,18.0302251 14.0964032,18.0604347 14.0991396,18.0905357 L15.9173214,38.0905357 C15.9641468,38.6056149 16.3960114,39 16.9132146,39 L17.9535129,39 C18.5057977,39 18.9535129,38.5522847 18.9535129,38 C18.9535129,37.9848583 18.953169,37.9697185 18.9524815,37.9545923 L18.0433906,17.9545923 C18.0191143,17.4205156 17.5790502,17 17.044422,17 Z" id="Path-6" fill="#FFFFFF"></path>
        <path d="M26,9 C27.6568542,9 29,10.3431458 29,12 C29,13.6568542 27.6568542,15 26,15 L22,15 C20.3431458,15 19,13.6568542 19,12 C19,10.3431458 20.3431458,9 22,9 L26,9 Z M26,11 L22,11 C21.4477153,11 21,11.4477153 21,12 L21,12 L21,13 C21,13.5522847 21.4477153,14 22,14 L22,14 L26,14 C26.5522847,14 27,13.5522847 27,13 L27,13 L27,12 C27,11.4477153 26.5522847,11 26,11 L26,11 Z" id="Rectangle-2" fill="#FFFFFF"></path>
    </g>
</svg>