<?xml version="1.0" encoding="UTF-8"?>
<svg width="48px" height="32px" viewBox="0 0 48 32" version="1.1" xmlns="http://www.w3.org/2000/svg" xmlns:xlink="http://www.w3.org/1999/xlink">
    <title>icon-plus-association</title>
    <g id="icon-plus-association" stroke="none" stroke-width="1" fill="none" fill-rule="evenodd">
        <rect id="Rectangle-Copy" fill="#FFFFFF" x="18" y="15" width="26" height="2" rx="1"></rect>
        <path d="M33,15 L42.9454237,5.05457633 C43.1866726,4.8133274 43.5778144,4.8133274 43.8190633,5.05457633 C43.9349151,5.17042814 44,5.32755693 44,5.49139614 L44,6.56920791 C44,6.83405214 43.8949379,7.08808038 43.707866,7.27555462 L36,15 L36,15 L33,15 Z" id="Path-7" fill="#FFFFFF"></path>
        <path d="M33,28 L42.9606506,18.0393494 C43.1984161,17.8015839 43.5839103,17.8015839 43.8216758,18.0393494 C43.9358549,18.1535285 44,18.3083885 44,18.469862 L44,19.5290943 C44,19.7921888 43.8963178,20.0446844 43.711425,20.2318563 L36.0378746,28 L36.0378746,28 L33,28 Z" id="Path-7-Copy" fill="#FFFFFF" transform="translate(38.500000, 22.500000) scale(1, -1) translate(-38.500000, -22.500000) "></path>
        <g id="plus" transform="translate(2.000000, 10.000000)" fill="#FFFFFF">
            <rect id="Rectangle" x="5" y="0" width="2" height="12" rx="1"></rect>
            <rect id="Rectangle-Copy-2" x="0" y="5" width="12" height="2" rx="1"></rect>
        </g>
    </g>
</svg>