<?xml version="1.0" encoding="UTF-8"?>
<svg width="48px" height="48px" viewBox="0 0 48 48" version="1.1" xmlns="http://www.w3.org/2000/svg" xmlns:xlink="http://www.w3.org/1999/xlink">
    <title>icon-plus-entity</title>
    <g id="icon-plus-entity" stroke="none" stroke-width="1" fill="none" fill-rule="evenodd">
        <path d="M37,8 C38.6568542,8 40,9.34314575 40,11 L40,35 C40,36.6568542 38.6568542,38 37,38 L11,38 C9.34314575,38 8,36.6568542 8,35 L8,11 C8,9.34314575 9.34314575,8 11,8 L37,8 Z M36,16 L12,16 C10.8954305,16 10,16.8954305 10,18 L10,18 L10,34 C10,35.1045695 10.8954305,36 12,36 L12,36 L36,36 C37.1045695,36 38,35.1045695 38,34 L38,34 L38,18 C38,16.8954305 37.1045695,16 36,16 L36,16 Z" id="Rectangle-2" fill="#FFFFFF"></path>
        <g id="plus" transform="translate(18.000000, 20.000000)" fill="#FFFFFF">
            <rect id="Rectangle" x="5" y="0" width="2" height="12" rx="1"></rect>
            <rect id="Rectangle-Copy-2" x="0" y="5" width="12" height="2" rx="1"></rect>
        </g>
    </g>
</svg>