<?xml version="1.0" encoding="UTF-8"?>
<svg width="160px" height="48px" viewBox="0 0 160 48" version="1.1" xmlns="http://www.w3.org/2000/svg" xmlns:xlink="http://www.w3.org/1999/xlink">
    <title>logo-white</title>
    <g id="logo-white" stroke="none" stroke-width="1" fill="none" fill-rule="evenodd">
        <g id="board" transform="translate(12.000000, 8.000000)" fill="#FFFFFF">
            <path d="M31,4 C31.5522847,4 32,4.44771525 32,5 L32,23 C32,23.5522847 31.5522847,24 31,24 L1,24 C0.44771525,24 6.76353751e-17,23.5522847 0,23 L0,5 C-6.76353751e-17,4.44771525 0.44771525,4 1,4 L31,4 Z M29,8 L3,8 C2.44771525,8 2,8.44771525 2,9 L2,9 L2,21 C2,21.5522847 2.44771525,22 3,22 L3,22 L29,22 C29.5522847,22 30,21.5522847 30,21 L30,21 L30,9 C30,8.44771525 29.5522847,8 29,8 L29,8 Z" id="Rectangle-2"></path>
            <path d="M16,0 C16.5522847,-1.01453063e-16 17,0.44771525 17,1 L17,4 L17,4 L15,4 L15,1 C15,0.44771525 15.4477153,1.01453063e-16 16,0 Z" id="Rectangle"></path>
            <path d="M15,24 L17,24 L17,31 C17,31.5522847 16.5522847,32 16,32 C15.4477153,32 15,31.5522847 15,31 L15,24 L15,24 Z" id="Rectangle-Copy-2"></path>
            <path d="M14,24 L7.06066017,30.9393398 C6.81801948,31.1819805 6.81801948,31.5753788 7.06066017,31.8180195 C7.17718034,31.9345397 7.3352156,32 7.5,32 L8.58578644,32 C8.85100293,32 9.10535684,31.8946432 9.29289322,31.7071068 L15,26 L15,26 L15,24 L14,24 Z" id="Path-2"></path>
            <path d="M24,24 L17.9877569,30.871135 C17.7402159,31.154039 17.7688833,31.5840497 18.0517873,31.8315907 C18.1758644,31.9401582 18.3351302,32 18.5,32 L19.5316251,32 C19.8284049,32 20.1098525,31.868177 20.2998463,31.6401844 L25,26 L25,26 L25,24 L24,24 Z" id="Path-2-Copy" transform="translate(21.000000, 28.000000) scale(-1, 1) translate(-21.000000, -28.000000) "></path>
        </g>
        <g id="DBoard-text-Copy" transform="translate(56.693000, 13.774000)" fill="#FFFFFF" fill-rule="nonzero">
            <path d="M-7.10542736e-15,18.226 L-7.10542736e-15,1.274 L4.784,1.274 C6.084,1.274 7.254,1.43866667 8.294,1.768 C9.334,2.09733333 10.2266667,2.60433333 10.972,3.289 C11.7173333,3.97366667 12.2893333,4.84466667 12.688,5.902 C13.0866667,6.95933333 13.286,8.216 13.286,9.672 C13.286,11.128 13.0866667,12.3933333 12.688,13.468 C12.2893333,14.5426667 11.726,15.431 10.998,16.133 C10.27,16.835 9.399,17.3593333 8.385,17.706 C7.371,18.0526667 6.24,18.226 4.992,18.226 L-7.10542736e-15,18.226 Z M3.822,15.132 L4.55,15.132 C5.278,15.132 5.93666667,15.0366667 6.526,14.846 C7.11533333,14.6553333 7.618,14.3476667 8.034,13.923 C8.45,13.4983333 8.775,12.9393333 9.009,12.246 C9.243,11.5526667 9.36,10.6946667 9.36,9.672 C9.36,8.66666667 9.243,7.82166667 9.009,7.137 C8.775,6.45233333 8.45,5.90633333 8.034,5.499 C7.618,5.09166667 7.11533333,4.80133333 6.526,4.628 C5.93666667,4.45466667 5.278,4.368 4.55,4.368 L3.822,4.368 L3.822,15.132 Z" id="Shape"></path>
            <path d="M16.51,18.226 L16.51,1.274 L22.308,1.274 C23.192,1.274 24.011,1.339 24.765,1.469 C25.519,1.599 26.1776667,1.82866667 26.741,2.158 C27.3043333,2.48733333 27.7463333,2.92066667 28.067,3.458 C28.3876667,3.99533333 28.548,4.67133333 28.548,5.486 C28.548,5.86733333 28.496,6.24866667 28.392,6.63 C28.288,7.01133333 28.1406667,7.36666667 27.95,7.696 C27.7593333,8.02533333 27.5296667,8.32 27.261,8.58 C26.9923333,8.84 26.6846667,9.03066667 26.338,9.152 L26.338,9.256 C26.7713333,9.36 27.17,9.52033333 27.534,9.737 C27.898,9.95366667 28.2186667,10.2266667 28.496,10.556 C28.7733333,10.8853333 28.99,11.271 29.146,11.713 C29.302,12.155 29.38,12.662 29.38,13.234 C29.38,14.1006667 29.211,14.846 28.873,15.47 C28.535,16.094 28.067,16.6096667 27.469,17.017 C26.871,17.4243333 26.1733333,17.7276667 25.376,17.927 C24.5786667,18.1263333 23.7206667,18.226 22.802,18.226 L16.51,18.226 Z M20.332,8.06 L22.126,8.06 C23.062,8.06 23.7423333,7.878 24.167,7.514 C24.5916667,7.15 24.804,6.66466667 24.804,6.058 C24.804,5.39933333 24.5873333,4.93133333 24.154,4.654 C23.7206667,4.37666667 23.0533333,4.238 22.152,4.238 L20.332,4.238 L20.332,8.06 Z M20.332,15.262 L22.49,15.262 C24.5873333,15.262 25.636,14.4993333 25.636,12.974 C25.636,12.2286667 25.376,11.6956667 24.856,11.375 C24.336,11.0543333 23.5473333,10.894 22.49,10.894 L20.332,10.894 L20.332,15.262 Z" id="Shape"></path>
            <path d="M37.466,18.538 C36.6513333,18.538 35.8626667,18.3863333 35.1,18.083 C34.3373333,17.7796667 33.6656667,17.342 33.085,16.77 C32.5043333,16.198 32.0406667,15.4916667 31.694,14.651 C31.3473333,13.8103333 31.174,12.8526667 31.174,11.778 C31.174,10.7033333 31.3473333,9.74566667 31.694,8.905 C32.0406667,8.06433333 32.5043333,7.358 33.085,6.786 C33.6656667,6.214 34.3373333,5.77633333 35.1,5.473 C35.8626667,5.16966667 36.6513333,5.018 37.466,5.018 C38.2806667,5.018 39.065,5.16966667 39.819,5.473 C40.573,5.77633333 41.2403333,6.214 41.821,6.786 C42.4016667,7.358 42.8653333,8.06433333 43.212,8.905 C43.5586667,9.74566667 43.732,10.7033333 43.732,11.778 C43.732,12.8526667 43.5586667,13.8103333 43.212,14.651 C42.8653333,15.4916667 42.4016667,16.198 41.821,16.77 C41.2403333,17.342 40.573,17.7796667 39.819,18.083 C39.065,18.3863333 38.2806667,18.538 37.466,18.538 Z M37.466,15.444 C38.246,15.444 38.8353333,15.1146667 39.234,14.456 C39.6326667,13.7973333 39.832,12.9046667 39.832,11.778 C39.832,10.6513333 39.6326667,9.75866667 39.234,9.1 C38.8353333,8.44133333 38.246,8.112 37.466,8.112 C36.6686667,8.112 36.075,8.44133333 35.685,9.1 C35.295,9.75866667 35.1,10.6513333 35.1,11.778 C35.1,12.9046667 35.295,13.7973333 35.685,14.456 C36.075,15.1146667 36.6686667,15.444 37.466,15.444 Z" id="Shape"></path>
            <path d="M49.608,18.538 C49.0186667,18.538 48.4856667,18.4383333 48.009,18.239 C47.5323333,18.0396667 47.1293333,17.7623333 46.8,17.407 C46.4706667,17.0516667 46.215,16.64 46.033,16.172 C45.851,15.704 45.76,15.1926667 45.76,14.638 C45.76,13.286 46.332,12.2286667 47.476,11.466 C48.62,10.7033333 50.466,10.192 53.014,9.932 C52.9793333,9.36 52.8103333,8.905 52.507,8.567 C52.2036667,8.229 51.6966667,8.06 50.986,8.06 C50.4313333,8.06 49.881,8.164 49.335,8.372 C48.789,8.58 48.204,8.866 47.58,9.23 L46.202,6.708 C47.034,6.20533333 47.905,5.798 48.815,5.486 C49.725,5.174 50.6913333,5.018 51.714,5.018 C53.378,5.018 54.6476667,5.49033333 55.523,6.435 C56.3983333,7.37966667 56.836,8.84866667 56.836,10.842 L56.836,18.226 L53.716,18.226 L53.456,16.9 L53.352,16.9 C52.7973333,17.3853333 52.2166667,17.7796667 51.61,18.083 C51.0033333,18.3863333 50.336,18.538 49.608,18.538 Z M50.908,15.574 C51.3413333,15.574 51.714,15.4786667 52.026,15.288 C52.338,15.0973333 52.6673333,14.8286667 53.014,14.482 L53.014,12.22 C51.662,12.4106667 50.726,12.688 50.206,13.052 C49.686,13.416 49.426,13.8493333 49.426,14.352 C49.426,14.768 49.5603333,15.0756667 49.829,15.275 C50.0976667,15.4743333 50.4573333,15.574 50.908,15.574 Z" id="Shape"></path>
            <path d="M60.06,18.226 L60.06,5.33 L63.18,5.33 L63.44,7.592 L63.544,7.592 C64.012,6.708 64.5753333,6.058 65.234,5.642 C65.8926667,5.226 66.5513333,5.018 67.21,5.018 C67.574,5.018 67.873,5.03966667 68.107,5.083 C68.341,5.12633333 68.5533333,5.19133333 68.744,5.278 L68.12,8.58 C67.8773333,8.51066667 67.652,8.45866667 67.444,8.424 C67.236,8.38933333 66.9933333,8.372 66.716,8.372 C66.2306667,8.372 65.7236667,8.54533333 65.195,8.892 C64.6663333,9.23866667 64.2286667,9.854 63.882,10.738 L63.882,18.226 L60.06,18.226 Z" id="Path"></path>
            <path d="M75.01,18.538 C74.2126667,18.538 73.489,18.382 72.839,18.07 C72.189,17.758 71.6343333,17.3116667 71.175,16.731 C70.7156667,16.1503333 70.3603333,15.444 70.109,14.612 C69.8576667,13.78 69.732,12.8353333 69.732,11.778 C69.732,10.7206667 69.8836667,9.776 70.187,8.944 C70.4903333,8.112 70.889,7.40566667 71.383,6.825 C71.877,6.24433333 72.449,5.798 73.099,5.486 C73.749,5.174 74.412,5.018 75.088,5.018 C75.816,5.018 76.414,5.13933333 76.882,5.382 C77.35,5.62466667 77.8093333,5.954 78.26,6.37 L78.104,4.394 L78.104,0 L81.926,0 L81.926,18.226 L78.806,18.226 L78.546,16.952 L78.442,16.952 C77.9913333,17.4026667 77.4626667,17.7796667 76.856,18.083 C76.2493333,18.3863333 75.634,18.538 75.01,18.538 Z M75.998,15.418 C76.414,15.418 76.791,15.3313333 77.129,15.158 C77.467,14.9846667 77.792,14.6813333 78.104,14.248 L78.104,8.97 C77.7573333,8.658 77.402,8.44133333 77.038,8.32 C76.674,8.19866667 76.3186667,8.138 75.972,8.138 C75.3653333,8.138 74.828,8.42833333 74.36,9.009 C73.892,9.58966667 73.658,10.4953333 73.658,11.726 C73.658,13.0086667 73.8616667,13.9446667 74.269,14.534 C74.6763333,15.1233333 75.2526667,15.418 75.998,15.418 Z" id="Shape"></path>
        </g>
    </g>
</svg>